<svg xmlns="http://www.w3.org/2000/svg" fill="none" viewBox="0 0 143 203">
  <path fill="#E2CBB5" d="m138 190-12-12v-6c0-13.7-10.6-24.9-24-25.9V138h6c14.4 0 26-11.6 26-26V86c0-2.2-1.8-4-4-4s-4 1.8-4 4c0-2.2-1.8-4-4-4s-4 1.8-4 4c0-2.2-1.8-4-4-4s-4 1.8-4 4v22c0 3.3-2.7 6-6 6h-2V86H52c-5.5 0-10-4.5-10-10s4.5-10 10-10h50v-4c4.4 0 8-3.6 8-8s-3.6-8-8-8V32c0-14-7.9-22-22-22H56c-14.1 0-22 8-22 22v14c-4.4 0-8 3.6-8 8s3.6 8 8 8v52h-2c-3.3 0-6-2.7-6-6V86c0-2.2-1.8-4-4-4s-4 1.8-4 4c0-2.2-1.8-4-4-4s-4 1.8-4 4c0-2.2-1.8-4-4-4s-4 1.8-4 4v26c0 14.4 11.6 26 26 26h6v18c0 3.3-2.7 6-6 6H14v36l12-12h6c10.8 0 20.1-6.6 24-16h40c3.3 0 6 2.7 6 6v14h36Z"/>
  <path fill="#fff" d="M56 58a8 8 0 1 0 0-16 8 8 0 0 0 0 16ZM80 58a8 8 0 1 0 0-16 8 8 0 0 0 0 16Z"/>
  <path fill="#9FA628" d="M56 54a4 4 0 1 0 0-8 4 4 0 0 0 0 8ZM80 54a4 4 0 1 0 0-8 4 4 0 0 0 0 8Z"/>
  <path fill="#BF6C35" d="M80 10H56c-14.1 0-22 8-22 22v2l4-4 6 6 6-6 6 6 6-6 6 6 6-6 6 6 6-6 6 6 6-6 4 4v-2c0-14-7.9-22-22-22Z"/>
  <path fill="#663F4C" d="M56 60c-5.5 0-10-4.5-10-10s4.5-10 10-10 10 4.5 10 10-4.5 10-10 10Zm0-16c-3.3 0-6 2.7-6 6s2.7 6 6 6 6-2.7 6-6-2.7-6-6-6ZM80 60c-5.5 0-10-4.5-10-10s4.5-10 10-10 10 4.5 10 10-4.5 10-10 10Zm0-16c-3.3 0-6 2.7-6 6s2.7 6 6 6 6-2.7 6-6-2.7-6-6-6Z"/>
  <path fill="#663F4C" d="M142.8 192 128 177.2V172c0-13.9-10.4-25.8-24-27.7V140h4c15.4 0 28-12.6 28-28V86c0-3.3-2.7-6-6-6-1.5 0-2.9.6-4 1.5-1.1-1-2.5-1.5-4-1.5s-2.9.6-4 1.5c-1.1-1-2.5-1.5-4-1.5-3.3 0-6 2.7-6 6v22c0 2.2-1.8 4-4 4V84H94v-1c0-1.7-1.3-3-3-3s-3 1.3-3 3v1h-6v-1c0-1.7-1.3-3-3-3s-3 1.3-3 3v1h-6v-1c0-1.7-1.3-3-3-3s-3 1.3-3 3v1h-6v-1c0-1.7-1.3-3-3-3s-3 1.3-3 3v1c-4.4 0-8-3.6-8-8s3.6-8 8-8h6v1c0 1.7 1.3 3 3 3s3-1.3 3-3v-1h6v1c0 1.7 1.3 3 3 3s3-1.3 3-3v-1h6v1c0 1.7 1.3 3 3 3s3-1.3 3-3v-1h6v1c0 1.7 1.3 3 3 3s3-1.3 3-3v-1h4v-4.2c4.6-.9 8-5 8-9.8 0-4.8-3.4-8.9-8-9.8V32c0-15.3-8.7-24-24-24H56c-15.3 0-24 8.7-24 24v12.2c-4.6.9-8 5-8 9.8 0 4.8 3.4 8.9 8 9.8V112c-2.2 0-4-1.8-4-4V86c0-3.3-2.7-6-6-6-1.5 0-2.9.6-4 1.5-1.1-1-2.5-1.5-4-1.5s-2.9.6-4 1.5c-1.1-1-2.5-1.5-4-1.5-3.3 0-6 2.7-6 6v26c0 15.4 12.6 28 28 28h4v16c0 2.2-1.8 4-4 4H12v42.8L26.8 188H32c10.9 0 20.7-6.2 25.3-16H96c2.2 0 4 1.8 4 4v16h42.8ZM104 116c4.4 0 8-3.6 8-8V86c0-1.1.9-2 2-2s2 .9 2 2 .9 2 2 2 2-.9 2-2 .9-2 2-2 2 .9 2 2 .9 2 2 2 2-.9 2-2 .9-2 2-2 2 .9 2 2v26c0 13.2-10.8 24-24 24h-4v-20Zm0-67.7c2.3.8 4 3 4 5.7s-1.7 4.8-4 5.7V48.3ZM28 54c0-2.6 1.7-4.8 4-5.7v11.3c-2.3-.8-4-3-4-5.6Zm68 114H54.7l-.5 1.2c-3.7 9-12.4 14.8-22.2 14.8h-6.8l-9.2 9.2V164h12c4.4 0 8-3.6 8-8v-20h-8c-13.2 0-24-10.8-24-24V86c0-1.1.9-2 2-2s2 .9 2 2 .9 2 2 2 2-.9 2-2 .9-2 2-2 2 .9 2 2 .9 2 2 2 2-.9 2-2 .9-2 2-2 2 .9 2 2v22c0 4.4 3.6 8 8 8h4V32c0-12.9 7.1-20 20-20h24c12.9 0 20 7.1 20 20v32H52c-6.6 0-12 5.4-12 12s5.4 12 12 12h48v59.9l1.8.1c12.5 1 22.2 11.5 22.2 24v6.8l9.2 9.2H104v-12c0-4.4-3.6-8-8-8Z"/>
</svg>
