<svg xmlns="http://www.w3.org/2000/svg" fill="none" viewBox="0 0 147 203">
  <path fill="#E2CBB5" d="m22.102 148-18-10 18-10v20ZM22.102 128l-18-10 18-10v20ZM22.102 108l-18-10 18-10v20ZM22.102 88l-18-10 18-10v20Z"/>
  <path fill="#9FA628" d="M40.102 86c-5.5 0-10-4.5-10-10s4.5-10 10-10h50V32c0-14-7.9-22-22-22h-24c-14.1 0-22 8-22 22v124c0 3.3-2.7 6-6 6h-14v36l12-12h6c10.8 0 20.1-6.6 24-16h40c3.3 0 6 2.7 6 6v14h36l-12-12v-6c0-13.7-10.6-24.9-24-25.9V142h48l-10-8 12-4-12-4 10-8h-48v-8h48l-10-8 12-4-12-4 10-8h-98Z"/>
  <path fill="#fff" d="M44.102 58a8 8 0 1 0 0-16 8 8 0 0 0 0 16ZM68.102 58a8 8 0 1 0 0-16 8 8 0 0 0 0 16Z"/>
  <path fill="#BF6C35" d="M44.102 54a4 4 0 1 0 0-8 4 4 0 0 0 0 8ZM68.102 54a4 4 0 1 0 0-8 4 4 0 0 0 0 8Z"/>
  <path fill="#663F4C" d="M44.102 60c-5.5 0-10-4.5-10-10s4.5-10 10-10 10 4.5 10 10-4.5 10-10 10Zm0-16c-3.3 0-6 2.7-6 6s2.7 6 6 6 6-2.7 6-6-2.7-6-6-6ZM68.102 60c-5.5 0-10-4.5-10-10s4.5-10 10-10 10 4.5 10 10-4.5 10-10 10Zm0-16c-3.3 0-6 2.7-6 6s2.7 6 6 6 6-2.7 6-6-2.7-6-6-6Z"/>
  <path fill="#663F4C" d="m132.2 125.3 11.6-9.3H92.1v-4h51.7l-11.6-9.3 14.2-4.7-14.2-4.7 11.6-9.3H90.1l-4-8-4 8h-4l-4-8-4 8h-4l-4-8-4 8h-4l-4-8-4 8h-4l-4-8-3.1 6.2c-1.8-1.5-2.9-3.7-2.9-6.2 0-4.4 3.6-8 8-8l4 8 4-8h4l4 8 4-8h4l4 8 4-8h4l4 8 4-8h8V32c0-6.7-1.7-12.2-4.9-16.2l5.3-5.3c1.6 1 3.5 1.5 5.7 1.5 1.1 0 2-.9 2-2s-.9-2-2-2c-3.8 0-6-2.2-6-6 0-1.1-.9-2-2-2s-2 .9-2 2c0 2.2.5 4.1 1.5 5.7L84.4 13c-4-3.2-9.5-4.9-16.2-4.9H44.1c-6.7 0-12.2 1.7-16.2 4.9l-5.3-5.3c1-1.6 1.5-3.5 1.5-5.7 0-1.1-.9-2-2-2s-2 .9-2 2c0 3.8-2.2 6-6 6-1.1 0-2 .9-2 2s.9 2 2 2c2.2 0 4.1-.5 5.7-1.5l5.3 5.3c-3.2 4-4.9 9.5-4.9 16.2v34.8L0 78l18 10L0 98l18 10-18 10 18 10-18 10 20.1 11.2v6.8c0 2.2-1.8 4-4 4H.1v42.8L14.9 188h5.2c10.9 0 20.7-6.2 25.3-16h38.7c2.2 0 4 1.8 4 4v16h42.8l-14.8-14.8V172c0-13.9-10.4-25.8-24-27.7v-.3h51.7l-11.6-9.3 14.2-4.7-14.2-4.7ZM92.1 88h40.3l-8.4 6.7 9.8 3.3-9.8 3.3 8.4 6.7H92.1V88Zm-72-16.6v13.2L8.2 78l11.9-6.6Zm0 20v13.2L8.2 98l11.9-6.6Zm0 20v13.2L8.2 118l11.9-6.6ZM8.2 138l11.9-6.6v13.2L8.2 138ZM24.1 32c0-12.9 7.1-20 20-20h24c12.9 0 20 7.1 20 20v32h-48c-6.6 0-12 5.4-12 12s5.4 12 12 12h48v32h44.3l-8.4 6.7 9.8 3.3-9.8 3.3 8.4 6.7H88.1v7.9l1.8.1c12.5 1 22.2 11.5 22.2 24v6.8l9.2 9.2H92.1v-12c0-4.4-3.6-8-8-8H42.8l-.5 1.2c-3.7 9-12.4 14.8-22.2 14.8h-6.8l-9.2 9.2V164h12c4.4 0 8-3.6 8-8V32Z"/>
</svg>
